<svg width="163" height="50" viewBox="0 0 163 50" fill="none" xmlns="http://www.w3.org/2000/svg">
<g clip-path="url(#clip0_19_50)">
<path d="M86.9999 0.322571H79.8582V40H86.9999V0.322571Z" fill="#3D8BF2"/>
<path d="M77.9105 32.9032H53.5635V40H74.3396L77.9105 32.9032Z" fill="#3D8BF2"/>
<path d="M0 32.9032H20.4515V40H7.14179L7.16708 42.9032H73.8526L70.1194 50H5.51866C1.62313 48.9677 0.216418 46.4516 0 45.3226V32.9032Z" fill="#3D8BF2"/>
<path d="M24.347 40H51.6157V26.6129C50.9664 23.5161 48.3152 21.9893 47.0709 21.6129H32.9497V21.4516L53.5635 0H43.5L32.4627 11.6129V29.0323H44.4739V32.9032H30.8396V0H23.3732V39.0323L24.347 40Z" fill="#3D8BF2"/>
</g>
<g clip-path="url(#clip1_19_50)">
<path d="M97.1138 36.8182L113.841 0L122.603 13.2955L116.231 27.1591L101.552 36.5909H127.724L136.372 50H105.876L97.1138 36.8182Z" fill="#3D8BF2"/>
<path d="M162.886 13.1818L146.159 50L137.397 36.7045L143.769 22.8409L158.448 13.4091H132.276L123.628 0H154.124L162.886 13.1818Z" fill="#3D8BF2"/>
</g>
<defs>
<clipPath id="clip0_19_50">
<rect width="87" height="50" fill="white"/>
</clipPath>
<clipPath id="clip1_19_50">
<rect width="66" height="50" fill="white" transform="translate(97)"/>
</clipPath>
</defs>
</svg>
