<svg width="772" height="227" viewBox="0 0 772 227" fill="none" xmlns="http://www.w3.org/2000/svg">
<path d="M275 78V60H257V78H275Z" fill="white"/>
<path d="M275 172V84H257V172H275Z" fill="white"/>
<path d="M305 172H289V71C290.2 62.2 296.833 60 300 60H334C343.2 60 352.167 65.3333 355.5 68C364.333 77.3333 382.4 96.4 384 98C385.2 100 385.5 102.167 385.5 103V172H369.5V106.5C364.5 101.167 353.2 89.1 348 83.5C344 77.9 336.333 76.1667 333 76H305V172Z" fill="white"/>
<path d="M418 60H402V98C402 99.6 402.667 101 403 101.5L453 163.5C459 169.1 468.833 171.5 473 172H488C496.4 170 498.167 163.833 498 161V60H482V155.5H473C467.4 154.7 463.333 151.167 462 149.5L418 94.5V60Z" fill="white"/>
<path d="M565 139.5L554 128V127.5L561 121L588 95.5C592.4 91.5 594.167 85.8333 594.5 83.5V76H548C534.8 77.6 530.833 88 530.5 93V143C530.9 153 541 155.643 546 155.715H595V132C598.2 123.6 605 125.5 608 127.5C613.667 133.5 626.1 146.6 630.5 151C633.7 154.6 639.5 155.5 642 155.5H682C685.6 154.7 686.833 151.5 687 150V148C687 146.8 685.333 144.833 684.5 144C672.667 132.667 646.7 107.8 637.5 99C628.3 90.6 629.667 79.5 631.5 75C635.9 63 646.333 60 651 60H707.431V76H652C644.8 77.6 646 83.3333 647.5 86C660 98 687.6 124.6 698 135C706.8 145.8 702.333 157.833 699 162.5C693.4 169.7 685.333 171.833 682 172H643C629.8 171.2 621.833 165.667 619.5 163L611 154V164C611 168.8 606.667 171.333 604.5 172H545C521 169.2 514.667 152.833 514.5 145V93C516.1 68.6 536.167 60.8333 546 60H600C607.6 60.8 610.167 67 610.5 70V83C610.5 93.4 604.167 102.333 601 105.5L565 139.5Z" fill="white"/>
<path d="M758.781 89H743.5V105H768L758.781 89Z" fill="white"/>
<path d="M739.5 60H723.5V138.5C725.1 163.7 745.833 171.333 756 172H771.5V156H757C743.8 154 739.833 143.5 739.5 138.5V60Z" fill="white"/>
<path d="M0 14V68L54.5 40V0H14C3.6 1.6 0.333333 10 0 14Z" fill="white"/>
<path d="M125 0H68V55H114.5C132.1 55 146.167 65.3333 151 70.5L171 90.2307V171.5H54.5V56L0 84.5V158.5C6 210.9 47.8333 225.667 68 226.5H156C167.6 226.5 177.833 220.167 181.5 217C190.5 207.833 210.3 187.6 217.5 180C224.3 172.4 226 161.5 226 157V76C226 71.6 224.333 68.8333 223.5 68C218.667 63 203.4 47.4 181 25C155 1.5 127.5 0 125 0Z" fill="white"/>
</svg>
