<svg width="312" height="106" viewBox="0 0 312 106" fill="none" xmlns="http://www.w3.org/2000/svg">
<g clip-path="url(#clip0_292_1168)">
<path d="M184.001 0.683899H168.896V84.8H184.001V0.683899Z" fill="white"/>
<path d="M164.776 69.7548H113.283V84.8H157.224L164.776 69.7548Z" fill="white"/>
<path d="M0 69.7548H43.2537V84.8H15.1045L15.158 90.9548H156.194L148.298 106H11.6716C3.43284 103.812 0.457712 98.4774 0 96.0839V69.7548Z" fill="white"/>
<path d="M51.4933 84.8H109.165V56.4193C107.792 49.8542 102.185 46.6172 99.553 45.8194H69.6873V45.4774L113.284 0H92.0008L68.6575 24.6194V61.5484H94.0605V69.7548H65.2246V0H49.4336V82.7484L51.4933 84.8Z" fill="white"/>
</g>
<g clip-path="url(#clip1_292_1168)">
<path d="M208.18 71.4364L234.538 14L248.345 34.7409L238.304 56.3682L215.173 71.0818H256.414L270.042 92H221.987L208.18 71.4364Z" fill="white"/>
<path d="M311.821 34.5636L285.462 92L271.656 71.2591L281.697 49.6318L304.828 34.9182H263.587L249.959 14H298.014L311.821 34.5636Z" fill="white"/>
</g>
<defs>
<clipPath id="clip0_292_1168">
<rect width="184" height="106" fill="white"/>
</clipPath>
<clipPath id="clip1_292_1168">
<rect width="104" height="78" fill="white" transform="translate(208 14)"/>
</clipPath>
</defs>
</svg>
